<?xml version="1.0" standalone="no"?>
<!DOCTYPE svg PUBLIC "-//W3C//DTD SVG 20010904//EN"
 "http://www.w3.org/TR/2001/REC-SVG-20010904/DTD/svg10.dtd">
<svg version="1.0" xmlns="http://www.w3.org/2000/svg"
 width="500.000000pt" height="500.000000pt" viewBox="0 0 500.000000 500.000000"
 preserveAspectRatio="xMidYMid meet">

<g transform="translate(0.000000,500.000000) scale(0.100000,-0.100000)"
fill="#000000" stroke="none">
<path d="M2220 3900 c0 -6 6 -8 13 -4 7 4 9 3 4 -2 -5 -5 -14 -9 -20 -9 -9 0
-13 -96 -17 -363 l-5 -363 -416 1 -415 0 -34 -22 c-71 -48 -71 -46 -70 -440 0
-476 -33 -437 375 -440 160 -1 352 -4 428 -6 l137 -3 0 -424 0 -423 26 -31
c41 -49 71 -53 394 -49 277 3 297 4 322 23 54 41 53 29 58 485 l5 425 425 5
c234 3 426 7 428 8 32 27 71 78 75 99 8 35 -13 203 -24 203 -11 0 -34 54 -43
101 -8 46 -59 100 -93 98 -16 0 -16 -1 2 -9 16 -7 16 -9 4 -9 -20 -1 -30 -22
-23 -48 3 -11 -3 -26 -14 -36 -17 -16 -55 -17 -473 -15 l-454 3 -3 23 c-5 35
-19 26 -26 -19 -6 -36 -19 -87 -86 -326 -10 -35 -16 -63 -14 -63 2 0 12 17 23
38 21 42 125 177 179 235 32 33 42 37 84 37 62 0 64 4 -100 -181 -160 -179
-177 -215 -212 -464 -6 -44 -16 -94 -21 -112 -11 -33 -36 -50 -52 -34 -5 5
-13 71 -18 147 -8 136 -8 137 16 166 15 17 25 43 26 61 2 116 -4 253 -16 386
-8 85 -15 215 -16 290 -1 220 -17 284 -34 141 -4 -30 -18 -107 -32 -170 -13
-63 -26 -125 -29 -137 l-4 -23 -488 0 c-478 0 -489 0 -510 20 -24 23 -29 48
-9 55 6 3 221 6 476 7 l464 3 14 65 c8 36 21 101 28 145 8 44 19 98 24 120 16
63 49 263 57 344 7 84 30 119 64 101 13 -7 20 -25 24 -62 11 -111 28 -442 33
-666 3 -128 10 -235 14 -237 4 -3 12 14 17 37 28 117 61 237 71 256 20 37 40
25 74 -44 l32 -67 224 7 c123 3 301 7 395 8 94 0 156 3 139 5 -18 2 -33 10
-33 16 0 7 -4 6 -10 -3 -7 -11 -10 -11 -10 -2 0 7 -4 10 -10 7 -5 -3 -10 -1
-10 4 0 6 11 11 25 11 14 0 25 -4 25 -10 0 -5 12 -10 26 -10 24 0 24 1 9 17
-9 9 -36 18 -58 19 -69 4 -133 26 -143 48 -5 12 -20 23 -34 24 -14 2 -32 10
-40 17 -8 7 -25 16 -37 19 -13 4 -22 12 -20 19 1 6 -10 12 -24 12 -33 1 -92
43 -85 61 7 19 -28 54 -54 54 -11 0 -20 4 -20 9 0 5 -12 14 -27 19 -22 8 -23
11 -8 11 19 1 19 2 -2 16 -12 8 -30 14 -40 13 -10 -1 -34 1 -54 6 -31 6 -35
11 -32 31 3 12 0 26 -6 29 -6 4 -11 16 -11 27 0 10 -4 19 -9 19 -4 0 -14 21
-21 46 -7 25 -16 40 -20 34 -8 -13 -30 32 -30 63 0 15 -9 26 -28 34 -15 7 -32
23 -37 35 -6 13 -20 28 -33 33 -14 6 -26 22 -29 38 -3 15 -10 30 -14 33 -5 3
-7 9 -4 15 3 5 -6 26 -20 46 -14 21 -25 45 -25 55 0 10 -13 21 -35 28 -19 6
-35 16 -35 21 0 5 -8 9 -18 9 -10 0 -27 7 -38 15 -19 15 -19 15 0 27 17 10 13
13 -34 25 -30 7 -61 20 -70 28 -9 8 -20 15 -24 15 -4 0 -14 6 -22 14 -7 8 -33
17 -56 21 -24 4 -50 13 -58 20 -22 19 -60 28 -60 15z m698 -796 c96 -39 172
-150 172 -251 l0 -54 -37 3 -38 3 -6 58 c-5 44 -14 67 -36 95 -50 61 -86 77
-180 77 l-82 0 -6 34 c-4 18 -3 37 2 42 21 21 153 16 211 -7z m-472 -6 c-3
-13 -6 -30 -6 -39 0 -13 -14 -17 -60 -22 -109 -10 -176 -75 -187 -180 -6 -57
-6 -57 -39 -57 -37 0 -49 20 -38 67 36 164 132 253 273 253 61 0 63 -1 57 -22z
m-109 -590 c32 -40 80 -95 106 -124 34 -37 54 -70 67 -111 19 -63 36 -153 27
-153 -2 0 -23 30 -46 68 -48 77 -80 118 -206 263 -119 137 -116 129 -56 129
l51 0 57 -72z"/>
<path d="M3686 2752 c-3 -5 1 -9 9 -9 8 0 12 4 9 9 -3 4 -7 8 -9 8 -2 0 -6 -4
-9 -8z"/>
<path d="M3737 2753 c-10 -9 -9 -23 1 -23 5 0 9 7 9 15 0 17 -1 18 -10 8z"/>
</g>
</svg>
